<svg width="40" height="40" viewBox="0 0 40 40" fill="none" xmlns="http://www.w3.org/2000/svg">
<path d="M33.2452 27.568C33.1627 27.5817 33.0783 27.6014 32.986 27.6014H7.01348C5.82943 27.6014 4.86726 28.5577 4.86726 29.7339C4.86726 30.916 5.82943 31.8802 7.01348 31.8802H20.0007C20.6095 31.8802 21.1062 32.377 21.1062 32.9877V37.3333H18.8933V35.4266C18.8933 34.6902 18.2963 34.0933 17.56 34.0933H7.26483C4.93796 34.0933 2.97631 32.4615 2.70337 30.2975C2.55413 29.1154 2.87813 27.9607 3.61841 27.0437C4.36065 26.1247 5.46028 25.5376 6.74644 25.4217C6.83284 25.406 6.91923 25.3864 7.01348 25.3864H32.986C34.1701 25.3864 35.1342 24.4242 35.1342 23.2401C35.1342 22.0638 34.1701 21.1075 32.986 21.1075H7.01348C6.92316 21.1075 6.83872 21.0879 6.63646 21.0584C4.41171 20.864 2.66804 18.975 2.66804 16.7599C2.66804 14.4998 4.37439 12.646 6.75428 12.432C6.83871 12.4183 6.92316 12.4006 7.01348 12.4006H32.986C34.1701 12.4006 35.1342 11.4423 35.1342 10.2661C35.1342 9.08395 34.1701 8.11978 32.986 8.11978H20.0007C19.3901 8.11978 18.8933 7.62297 18.8933 7.01227V2.66666H21.1062V4.5734C21.1062 5.30978 21.7032 5.90672 22.4395 5.90672H32.7347C35.0635 5.90672 37.0251 7.53855 37.2981 9.70251C37.4473 10.8846 37.1214 12.0393 36.383 12.9563C35.6408 13.8753 34.5392 14.4624 33.255 14.5803C33.1686 14.594 33.0822 14.6136 32.986 14.6136H7.01348C5.82943 14.6136 4.86726 15.5758 4.86726 16.7599C4.86726 17.9362 5.82943 18.8925 7.01348 18.8925H32.986C33.0783 18.8925 33.1627 18.9121 33.363 18.9416C35.5897 19.136 37.3334 21.025 37.3334 23.2401C37.3334 25.5002 35.6271 27.354 33.2452 27.568ZM35.5799 16.7482C36.6953 16.3024 37.6947 15.5759 38.4586 14.6294C39.6564 13.1448 40.1826 11.2774 39.943 9.37064C39.5032 5.8753 36.4027 3.24006 32.7347 3.24006H23.7728V2.66666C23.7728 1.19587 22.577 0 21.1062 0H18.8933C17.4225 0 16.2267 1.19587 16.2267 2.66666V7.01227C16.2267 8.0805 16.6724 9.04466 17.3872 9.73195H7.01348C6.77196 9.73195 6.54615 9.76338 6.40477 9.79087C2.75444 10.1109 0.00147555 13.1075 0.00147555 16.7599C0.00147555 19.6662 1.84922 22.2249 4.41958 23.2519C3.30425 23.6976 2.30674 24.4241 1.5429 25.3706C0.345101 26.8552 -0.183121 28.7226 0.0564381 30.6313C0.498248 34.1247 3.59683 36.7599 7.26483 36.7599H16.2267V37.3333C16.2267 38.8041 17.4225 40 18.8933 40H21.1062C22.577 40 23.7728 38.8041 23.7728 37.3333V32.9877C23.7728 31.9195 23.3271 30.9553 22.6123 30.2681H32.986C33.2275 30.2681 33.4534 30.2366 33.5967 30.2091C37.247 29.8891 40 26.8925 40 23.2401C40 20.3338 38.1503 17.7752 35.5799 16.7482Z" fill="black"/>
</svg>
