<svg width="30" height="40" viewBox="0 0 30 40" fill="none" xmlns="http://www.w3.org/2000/svg">
<path d="M23.1818 10.6667H6.81802V8.00003H23.1818V10.6667ZM27.2727 15.3334V17.3332H2.72709V15.3334C2.72709 14.2304 3.64489 13.3333 4.77356 13.3333H25.2282C26.3549 13.3333 27.2727 14.2304 27.2727 15.3334ZM26.5919 37.3332H3.40992C3.03235 37.3332 2.72709 37.0343 2.72709 36.6665V33.3333H27.2727V36.6665C27.2727 37.0343 26.9674 37.3332 26.5919 37.3332ZM27.2727 30.6667H2.72709V19.9998H27.2727V30.6667ZM2.72709 2.66662H27.2727V5.33322H2.72709V2.66662ZM27.9555 8.00003C29.0822 8.00003 30 7.10285 30 6.00007V1.99996C30 0.896987 29.0822 0 27.9555 0H2.04626C0.917592 0 0 0.896987 0 1.99996V6.00007C0 7.10285 0.917592 8.00003 2.04626 8.00003H4.09074V10.734C1.78519 11.061 0 12.9886 0 15.3334V36.6665C0 38.5045 1.53014 40 3.40992 40H26.5919C28.4717 40 30 38.5045 30 36.6665V15.3334C30 12.9886 28.2166 11.061 25.9091 10.734V8.00003H27.9555Z" fill="black"/>
</svg>
