<svg width="40" height="40" viewBox="0 0 40 40" fill="none" xmlns="http://www.w3.org/2000/svg">
<path d="M33.8118 23.5688L20.3389 37.1911C20.1031 37.43 19.8951 37.4269 19.6606 37.1905L6.1889 23.5688C4.87047 22.236 3.86479 20.5941 3.27979 18.8188C3.19035 18.5509 3.14081 18.2786 3.07043 18.0086H7.94746C8.50927 18.0086 9.01113 17.657 9.202 17.1298L9.88294 15.2544L12.2548 23.6989C12.4099 24.2534 12.9039 24.6452 13.4801 24.6711C14.0503 24.6772 14.5828 24.351 14.7875 23.8128L16.9968 18.0086H19.8267C20.4229 18.0086 20.9466 17.614 21.1101 17.0414L22.0497 13.7542L25.8136 24.5508C25.9856 25.0455 26.4328 25.3937 26.9555 25.4404C26.9952 25.4437 27.0349 25.4459 27.0746 25.4459C27.5531 25.4459 27.9995 25.1885 28.2373 24.7663L32.0462 18.0086H36.9297C36.8591 18.2796 36.8092 18.5525 36.7199 18.8214C36.1351 20.5941 35.1296 22.236 33.8118 23.5688ZM6.1889 6.25192C8.46681 3.94888 11.4817 2.68243 14.6892 2.68243C16.3646 2.67772 17.9777 3.00513 19.463 3.65661C19.8039 3.80559 20.1897 3.80755 20.5292 3.65975C25.0961 1.69118 30.3081 2.70913 33.8118 6.25192C36.2401 8.70787 37.474 11.9941 37.3472 15.343H31.2656C30.7832 15.343 30.3387 15.6025 30.102 16.0223L27.3628 20.883L23.1826 8.90592C22.9902 8.35789 22.4956 7.97139 21.8836 8.01301C21.3016 8.02989 20.7985 8.4203 20.6387 8.97953L18.8196 15.343H16.0758C15.5219 15.343 15.0251 15.6851 14.8286 16.2025L13.7323 19.083L11.3274 10.5434C11.1703 9.98629 10.671 9.59391 10.0917 9.57232C9.54876 9.55348 8.98556 9.90561 8.7882 10.4501L7.01157 15.343H2.65271C2.52612 11.9949 3.75983 8.70806 6.1889 6.25192ZM39.8938 16.6375C40.4242 12.161 38.9579 7.66205 35.7109 4.37895C31.5632 0.183894 25.4544 -1.11435 20.0034 0.994955C18.3421 0.34544 16.5706 0.0168485 14.7326 0.0168485H14.6845C10.7622 0.0168485 7.0727 1.56497 4.28979 4.37895C1.04257 7.66205 -0.424081 12.1619 0.106082 16.6377C0.105689 16.6512 0.0984151 16.6622 0.0984151 16.6758C0.0984151 16.7246 0.121219 16.7663 0.126526 16.8138C0.250565 17.7665 0.433182 18.7183 0.74495 19.6556C1.45734 21.8169 2.68318 23.8181 4.28979 25.4418L17.7613 39.0635C18.3585 39.6675 19.1534 40 20.0001 40H20.0006C20.8481 40 21.6424 39.6675 22.2389 39.0635L35.7109 25.4418C37.3175 23.8175 38.5428 21.8161 39.2544 19.6582C39.5663 18.7205 39.749 17.7685 39.8734 16.8153C39.8787 16.7672 39.9017 16.7252 39.9017 16.6758C39.9017 16.6622 39.8942 16.651 39.8938 16.6375Z" fill="black"/>
</svg>
